<svg width="753" height="128" viewBox="0 0 753 128" fill="none" xmlns="http://www.w3.org/2000/svg">
<path d="M126.291 16C125.01 41.4963 103.083 42.7783 97.2458 43.9178C119.03 44.2026 124.868 31.8106 128 26.8253C125.864 43.0631 112.338 46.1968 106.785 47.6211C117.749 48.6182 123.159 42.6358 126.719 39.0749C124.44 50.8972 111.057 52.1791 106.928 52.8913C110.914 53.8884 116.752 52.6065 119.884 52.0367C117.321 56.025 109.063 55.5976 105.362 55.4552C108.209 57.5918 113.242 57.7342 118.745 57.7342C114.331 62.2922 105.219 61.0103 100.236 60.0132C102.941 61.7225 107.212 63.2893 112.908 63.7166C109.491 67.2775 103.795 65.9956 99.0968 64.7137C100.805 66.5653 103.511 67.2775 108.209 68.9868C99.8087 70.4112 97.8154 68.7019 89.5573 64.4288C93.8287 68.5595 97.9577 69.9838 102.229 72.4053C95.5373 73.5448 91.693 69.4141 88.1335 66.138C89.2725 68.9868 94.1135 72.6902 98.2425 75.9662C90.554 77.3906 86.2825 68.417 84.7164 65.5683C84.574 67.5624 89.4149 75.1116 91.5506 77.9604C87.2792 78.6725 82.1535 72.2629 79.733 68.1322C79.4483 70.2687 82.4383 74.3994 84.2892 78.1028C80.0748 77.533 77.7872 71.5981 77.1702 68.7019C76.6007 70.867 77.8821 75.0166 78.594 76.8209C77.2271 76.479 74.987 73.8297 74.0378 72.5477C74.0378 72.5477 73.8954 73.5448 74.1802 74.8267C73.3259 74.257 72.7564 73.4024 72.7564 73.4024H72.3304C69.5573 82.4272 81.013 88.591 89.9844 94.3407C89.1301 94.9104 87.8487 94.6256 84.7164 94.768C85.1435 95.7651 86.2825 97.4743 86.9944 98.0441C80.4449 98.7562 77.5973 93.3436 74.0378 89.3554C69.0659 83.7846 82.0111 100.465 81.0145 104.739C73.3259 102.317 71.9021 92.9163 67.7731 82.9457C67.7731 88.6432 74.3226 98.1865 74.0378 108.869C71.3326 107.16 67.6307 104.739 66.3493 96.0499C66.3493 100.75 67.6307 109.154 63.7864 113C59.9422 109.154 61.2236 100.75 61.2236 96.0499C59.9422 104.739 56.2403 107.16 53.535 108.869C53.2503 98.1865 59.7998 88.6432 59.7998 82.9457C55.6707 92.9163 54.2469 102.317 46.5584 104.739C45.5617 100.465 58.5069 83.7846 53.535 89.3554C49.9755 93.3436 47.1279 98.7562 40.5784 98.0441C41.2903 97.4743 42.4294 95.7651 42.8565 94.768C39.7241 94.6256 38.4427 94.9104 37.5884 94.3407C46.5596 88.5912 58.0149 82.4276 55.2428 73.4032C55.2211 73.4354 54.6575 74.2681 53.8198 74.8267C54.1046 73.5448 53.9622 72.5477 53.9622 72.5477C53.013 73.8297 50.7729 76.479 49.406 76.8209C50.1179 75.0166 51.3993 70.867 50.8298 68.7019C50.2128 71.5981 47.9253 77.533 43.7108 78.1028C45.5617 74.3994 48.5517 70.2687 48.267 68.1322C45.8465 72.2629 40.7208 78.6725 36.4494 77.9604C38.5851 75.1116 43.426 67.5624 43.2837 65.5683C41.7175 68.417 37.4461 77.3906 29.7575 75.9662C33.8865 72.6902 38.7275 68.9868 39.8665 66.138C36.307 69.4141 32.4627 73.5448 25.7709 72.4053C30.0423 69.9838 34.1713 68.5595 38.4427 64.4288C30.1847 68.7019 28.1913 70.4112 19.7909 68.9868C24.4894 67.2775 27.1947 66.5653 28.9032 64.7137C24.2047 65.9956 18.5095 67.2775 15.0923 63.7166C20.7875 63.2893 25.059 61.7225 27.7642 60.0132C22.7809 61.0103 13.6685 62.2922 9.25473 57.7342C14.7575 57.7342 19.7909 57.5918 22.6385 55.4552C18.9366 55.5976 10.6785 56.025 8.11568 52.0367C11.2481 52.6065 17.0857 53.8884 21.0723 52.8913C16.9433 52.1791 3.55951 50.8972 1.28142 39.0749C4.84093 42.6358 10.2514 48.6182 21.2147 47.6211C15.6618 46.1968 2.13571 43.0631 0 26.8253C3.13237 31.8106 8.96997 44.2026 30.7542 43.9178C24.9166 42.7783 2.98999 41.4963 1.70857 16C3.41713 19.5609 11.8176 40.9266 33.7442 42.4934C35.8799 42.4934 38.3003 43.2056 38.3003 45.4846C38.3003 49.188 34.0289 49.4728 31.7508 49.4728C34.3137 50.3749 39.8665 50.7548 39.8665 45.4846C39.8665 41.4963 35.2 41.2501 31.7508 40.9266C27.1947 40.4993 6.69188 35.6564 13.6685 16C14.3804 21.1278 16.2314 38.3627 38.3003 39.6446C40.507 39.7728 43.9956 42.0661 45.5617 46.0543C47.2422 50.3337 50.1842 53.5211 53.6841 53.6016L53.6774 53.524C53.7996 53.5612 53.9383 53.5852 54.0895 53.5913C55.1237 53.4983 55.9449 52.8748 56.5762 52.0311C57.1933 51.1241 57.7485 49.7413 58.0912 47.684C57.6641 47.9689 57.5217 48.1113 57.2369 48.1113C57.5217 47.8264 57.9488 47.2567 57.9488 46.9718C57.9491 46.6864 59.3719 43.4106 51.257 40.4197C52.1113 39.2327 55.0728 37.3716 60.0845 39.4226C60.7964 39.7075 61.0812 38.9953 63.3593 38.9953C65.6374 38.9953 67.346 40.5622 71.3326 43.8382C70.6207 43.8382 70.7631 44.1231 69.4817 43.8382C70.3359 45.2626 69.6241 44.8353 71.9021 47.9689C71.1903 47.5416 71.1902 47.3991 70.4783 47.2567C70.7377 48.9432 71.2335 52.8742 73.6866 53.5621C73.8458 53.5889 74.0103 53.6035 74.1802 53.6035C77.7397 53.6035 80.7361 50.3889 82.4383 46.0543C84.0045 42.0661 87.493 39.7728 89.6997 39.6446C111.769 38.3627 113.62 21.1278 114.331 16C121.308 35.6564 100.805 40.4993 96.2492 40.9266C92.8 41.2501 88.1335 41.4963 88.1335 45.4846C88.1335 50.7548 93.6863 50.3749 96.2492 49.4728C93.9711 49.4728 89.6997 49.188 89.6997 45.4846C89.6997 43.2056 92.1201 42.4934 94.2558 42.4934C116.182 40.9266 124.583 19.5609 126.291 16Z" fill="url(#paint0_linear_2_48)"/>
<path d="M193.84 93.96C189.413 93.96 185.307 93.24 181.52 91.8C177.787 90.36 174.533 88.3333 171.76 85.72C169.04 83.1067 166.907 80.04 165.36 76.52C163.867 73 163.12 69.16 163.12 65C163.12 60.84 163.867 57 165.36 53.48C166.907 49.96 169.067 46.8933 171.84 44.28C174.613 41.6667 177.867 39.64 181.6 38.2C185.333 36.76 189.387 36.04 193.76 36.04C198.187 36.04 202.24 36.76 205.92 38.2C209.653 39.64 212.88 41.6667 215.6 44.28C218.373 46.8933 220.533 49.96 222.08 53.48C223.627 56.9467 224.4 60.7867 224.4 65C224.4 69.16 223.627 73.0267 222.08 76.6C220.533 80.12 218.373 83.1867 215.6 85.8C212.88 88.36 209.653 90.36 205.92 91.8C202.24 93.24 198.213 93.96 193.84 93.96ZM193.76 82.92C196.267 82.92 198.56 82.4933 200.64 81.64C202.773 80.7867 204.64 79.56 206.24 77.96C207.84 76.36 209.067 74.4667 209.92 72.28C210.827 70.0933 211.28 67.6667 211.28 65C211.28 62.3333 210.827 59.9067 209.92 57.72C209.067 55.5333 207.84 53.64 206.24 52.04C204.693 50.44 202.853 49.2133 200.72 48.36C198.587 47.5067 196.267 47.08 193.76 47.08C191.253 47.08 188.933 47.5067 186.8 48.36C184.72 49.2133 182.88 50.44 181.28 52.04C179.68 53.64 178.427 55.5333 177.52 57.72C176.667 59.9067 176.24 62.3333 176.24 65C176.24 67.6133 176.667 70.04 177.52 72.28C178.427 74.4667 179.653 76.36 181.2 77.96C182.8 79.56 184.667 80.7867 186.8 81.64C188.933 82.4933 191.253 82.92 193.76 82.92ZM236.14 93V37H261.58C267.66 37 273.02 38.1733 277.66 40.52C282.3 42.8133 285.927 46.04 288.54 50.2C291.153 54.36 292.46 59.2933 292.46 65C292.46 70.6533 291.153 75.5867 288.54 79.8C285.927 83.96 282.3 87.2133 277.66 89.56C273.02 91.8533 267.66 93 261.58 93H236.14ZM249.1 82.36H260.94C264.673 82.36 267.9 81.6667 270.62 80.28C273.393 78.84 275.527 76.8133 277.02 74.2C278.567 71.5867 279.34 68.52 279.34 65C279.34 61.4267 278.567 58.36 277.02 55.8C275.527 53.1867 273.393 51.1867 270.62 49.8C267.9 48.36 264.673 47.64 260.94 47.64H249.1V82.36ZM304.234 93V37H317.194V93H304.234ZM332.484 93V37H343.204L376.244 77.32H371.044V37H383.844V93H373.204L340.084 52.68H345.284V93H332.484Z" fill="white"/>
<path d="M433.4 93V37H457C462.973 37 468.227 38.1733 472.76 40.52C477.347 42.8667 480.893 46.1467 483.4 50.36C485.96 54.5733 487.24 59.4533 487.24 65C487.24 70.5467 485.96 75.4267 483.4 79.64C480.893 83.8533 477.347 87.1333 472.76 89.48C468.227 91.8267 462.973 93 457 93H433.4ZM441.4 86.04H456.52C461.16 86.04 465.16 85.16 468.52 83.4C471.933 81.64 474.573 79.1867 476.44 76.04C478.307 72.84 479.24 69.16 479.24 65C479.24 60.7867 478.307 57.1067 476.44 53.96C474.573 50.8133 471.933 48.36 468.52 46.6C465.16 44.84 461.16 43.96 456.52 43.96H441.4V86.04ZM499.494 93V37H507.494V93H499.494ZM549.539 93.64C545.219 93.64 541.246 92.9467 537.619 91.56C533.993 90.12 530.846 88.12 528.179 85.56C525.513 82.9467 523.433 79.9067 521.939 76.44C520.446 72.9733 519.699 69.16 519.699 65C519.699 60.84 520.446 57.0267 521.939 53.56C523.433 50.0933 525.513 47.08 528.179 44.52C530.899 41.9067 534.073 39.9067 537.699 38.52C541.326 37.08 545.326 36.36 549.699 36.36C554.126 36.36 558.179 37.08 561.859 38.52C565.539 39.96 568.659 42.12 571.219 45L566.259 49.96C563.966 47.72 561.459 46.0933 558.739 45.08C556.073 44.0133 553.166 43.48 550.019 43.48C546.819 43.48 543.833 44.0133 541.059 45.08C538.339 46.1467 535.966 47.64 533.939 49.56C531.966 51.48 530.419 53.7733 529.299 56.44C528.233 59.0533 527.699 61.9067 527.699 65C527.699 68.04 528.233 70.8933 529.299 73.56C530.419 76.1733 531.966 78.4667 533.939 80.44C535.966 82.36 538.339 83.8533 541.059 84.92C543.779 85.9867 546.739 86.52 549.939 86.52C552.926 86.52 555.779 86.0667 558.499 85.16C561.273 84.2 563.833 82.6267 566.179 80.44L570.739 86.52C567.966 88.8667 564.713 90.6533 560.979 91.88C557.299 93.0533 553.486 93.64 549.539 93.64ZM563.059 85.48V64.68H570.739V86.52L563.059 85.48ZM586.056 93V37H594.056V93H586.056ZM621.942 93V43.96H602.742V37H649.062V43.96H629.862V93H621.942ZM646.482 93L671.843 37H679.763L705.203 93H696.803L674.163 41.48H677.363L654.723 93H646.482ZM657.283 79L659.443 72.6H690.963L693.283 79H657.283ZM713.556 93V37H721.556V86.04H751.876V93H713.556Z" fill="#60A5FA"/>
<defs>
<linearGradient id="paint0_linear_2_48" x1="64" y1="16" x2="64" y2="113" gradientUnits="userSpaceOnUse">
<stop stop-color="white"/>
<stop offset="1" stop-color="#F3F4F6"/>
</linearGradient>
</defs>
</svg>
